<svg version="1.2" baseProfile="tiny-ps" xmlns="http://www.w3.org/2000/svg" viewBox="0 0 48 50" width="48" height="50">
	<title>1-svg</title>
	<style>
		tspan { white-space:pre }
		.shp0 { fill: #3498db } 
		.shp1 { fill: #f1c40f } 
	</style>
	<g id="surface51257839">
		<path id="Layer" fill-rule="evenodd" class="shp0" d="M46 4L46 27.59C45.15 26.48 44.17 25.48 43.1 24.65L43.13 24.62L43.13 14.17L41.3 12.36C40.5 12.75 39.46 12.42 38.7 11.55C38.06 10.82 37.75 9.84 37.88 8.98L36.18 7.3L9.82 7.3L8.11 8.99C8.24 9.84 7.93 10.82 7.29 11.55C6.54 12.41 5.5 12.75 4.7 12.36L2.88 14.17L2.88 24.62L4.7 26.43C4.88 26.34 5.07 26.29 5.27 26.27C5.97 26.23 6.72 26.59 7.29 27.25C7.93 27.98 8.24 28.96 8.12 29.81L9.82 31.5L20.72 31.5C20.27 32.55 19.92 33.65 19.65 34.8L0 34.8L0 4L46 4ZM29.95 19.4C29.95 20.58 29.69 21.69 29.24 22.67C27.12 23.57 25.22 24.99 23.65 26.79C23.43 26.82 23.22 26.82 23 26.82C19.16 26.82 16.05 23.5 16.05 19.4C16.05 15.3 19.16 11.97 23 11.97C26.84 11.97 29.95 15.3 29.95 19.4ZM13.42 19.4C13.42 21.07 12.13 22.42 10.54 22.42C8.95 22.42 7.67 21.07 7.67 19.4C7.67 17.73 8.95 16.37 10.54 16.37C12.13 16.37 13.42 17.73 13.42 19.4ZM38.33 19.4C38.33 20.41 37.86 21.32 37.13 21.86C36.27 21.69 35.4 21.6 34.5 21.6C34.17 21.6 33.85 21.61 33.52 21.63C32.94 21.08 32.58 20.29 32.58 19.4C32.58 17.73 33.87 16.37 35.46 16.37C37.05 16.37 38.33 17.73 38.33 19.4ZM0 41.4L0 37L19.29 37C19.2 37.72 19.17 38.45 19.17 39.2C19.17 39.95 19.2 40.68 19.29 41.4L0 41.4ZM0 48L0 43.6L19.65 43.6C20.01 45.16 20.54 46.63 21.23 48L0 48Z" />
		<path id="Layer" fill-rule="evenodd" class="shp1" d="M48 37.55C48 44.45 42.15 50.09 35 50.09C27.85 50.09 22 44.45 22 37.55C22 30.64 27.85 25 35 25C42.15 25 48 30.64 48 37.55ZM36.51 42.56C36.51 42.14 36.3 41.73 35.86 41.51C35.65 41.31 35.22 41.1 34.78 41.1C34.35 41.1 33.92 41.31 33.7 41.51C33.49 41.73 33.26 42.14 33.26 42.56C33.26 42.99 33.49 43.4 33.7 43.61C33.92 43.82 34.35 44.03 34.78 44.03C35.43 44.03 35.65 44.03 36.08 43.61C36.3 43.4 36.51 42.99 36.51 42.56ZM39.33 34.62C39.33 33.58 38.9 32.73 38.25 32.11C37.39 31.49 36.3 31.27 35 31.27C33.7 31.27 32.61 31.49 31.97 32.11C31.1 32.73 30.67 33.58 30.67 34.62L33.7 34.62C33.7 34.2 33.92 33.99 34.14 33.58C34.35 33.36 34.78 33.36 35 33.36C35.86 33.36 36.3 33.78 36.08 34.83C36.08 35.04 36.08 35.45 35.86 35.67C35.65 35.87 35.43 36.29 34.78 36.71C34.35 37.13 33.92 37.55 33.92 37.96C33.7 38.59 33.49 38.8 33.49 39.64L36.08 39.64C36.08 39.22 36.3 39.01 36.3 38.8C36.51 38.38 36.74 38.17 36.95 37.96L38.03 37.13C38.9 36.29 39.33 35.45 39.33 34.62Z" />
	</g>
</svg>