<svg xmlns="http://www.w3.org/2000/svg"  viewBox="0 0 48 48" width="96px" height="96px"><circle cx="24" cy="24" r="18" fill="#fff"/><path fill="#e53935" d="M24,8c8.822,0,16,7.178,16,16s-7.178,16-16,16S8,32.822,8,24S15.178,8,24,8 M24,4 C12.954,4,4,12.954,4,24s8.954,20,20,20s20-8.954,20-20S35.046,4,24,4L24,4z"/><rect width="3" height="7" x="33" y="21" fill="#212121"/><rect width="3" height="7" x="33" y="21" fill="#212121" transform="rotate(90 34.5 24.5)"/><path fill="#212121" d="M17.688,31.742h-3.051v-12.45l-2.9,0.064v-2.202l5.951-1.063V31.742z"/><path fill="#212121" d="M29.083,20.248c0,0.788-0.177,1.482-0.532,2.084s-0.84,1.07-1.456,1.407	c0.702,0.358,1.253,0.859,1.654,1.504c0.401,0.645,0.602,1.386,0.602,2.224c0,1.454-0.419,2.567-1.257,3.341s-1.941,1.16-3.309,1.16	c-1.368,0-2.475-0.389-3.319-1.165c-0.845-0.777-1.268-1.89-1.268-3.336c0-0.838,0.2-1.581,0.602-2.229	c0.401-0.648,0.956-1.148,1.665-1.499c-0.623-0.337-1.11-0.806-1.461-1.407c-0.351-0.602-0.526-1.296-0.526-2.084	c0-1.382,0.394-2.456,1.182-3.223c0.788-0.767,1.826-1.149,3.115-1.149s2.329,0.383,3.121,1.149	C28.688,17.792,29.083,18.866,29.083,20.248z M26.301,27.241c0-0.702-0.14-1.259-0.419-1.671c-0.279-0.411-0.648-0.617-1.106-0.617	c-0.466,0-0.834,0.206-1.106,0.617c-0.272,0.412-0.408,0.969-0.408,1.671c0,0.716,0.136,1.276,0.408,1.681	c0.272,0.405,0.645,0.607,1.117,0.607c0.458,0,0.825-0.202,1.101-0.607C26.163,28.518,26.301,27.957,26.301,27.241z M26.011,20.393	c0-0.639-0.106-1.145-0.317-1.518c-0.211-0.374-0.518-0.561-0.918-0.561c-0.401,0-0.706,0.184-0.913,0.55	c-0.208,0.366-0.312,0.876-0.312,1.528c0,0.661,0.105,1.18,0.317,1.557c0.211,0.377,0.517,0.565,0.918,0.565	c0.401,0,0.705-0.187,0.913-0.56C25.907,21.581,26.011,21.061,26.011,20.393z"/></svg>