<svg version="1.2" baseProfile="tiny-ps" xmlns="http://www.w3.org/2000/svg" viewBox="0 0 48 48" width="48" height="48">
	<title>18+-svg</title>
	<style>
		tspan { white-space:pre }
		.shp0 { fill: #ffffff } 
		.shp1 { fill: #e53935 } 
		.shp2 { fill: #212121 } 
		.shp3 { display: none;fill: #212121 } 
	</style>
	<path id="Layer" class="shp0" d="M24 42C14.05 42 6 33.95 6 24C6 14.05 14.05 6 24 6C33.95 6 42 14.05 42 24C42 33.95 33.95 42 24 42Z" />
	<path id="Layer" fill-rule="evenodd" class="shp1" d="M24 4C35.05 4 44 12.95 44 24C44 35.05 35.05 44 24 44C12.95 44 4 35.05 4 24C4 12.95 12.95 4 24 4ZM8 24C8 32.82 15.18 40 24 40C32.82 40 40 32.82 40 24C40 15.18 32.82 8 24 8C15.18 8 8 15.18 8 24Z" />
	<path id="Layer" class="shp2" d="M33 21L36 21L36 28L33 28L33 21Z" />
	<path id="Layer" class="shp2" d="M38 23L38 26L31 26L31 23L38 23Z" />
	<path id="Layer" class="shp3" d="M17.69 31.74L14.64 31.74L14.64 19.29L11.74 19.36L11.74 17.15L17.69 16.09L17.69 31.74Z" />
	<path id="Layer" fill-rule="evenodd" class="shp3" d="M29.08 20.25C29.08 21.04 28.91 21.73 28.55 22.33C28.2 22.93 27.71 23.4 27.09 23.74C27.8 24.1 28.35 24.6 28.75 25.24C29.15 25.89 29.35 26.63 29.35 27.47C29.35 28.92 28.93 30.03 28.09 30.81C27.26 31.58 26.15 31.97 24.78 31.97C23.42 31.97 22.31 31.58 21.47 30.8C20.62 30.03 20.2 28.91 20.2 27.47C20.2 26.63 20.4 25.89 20.8 25.24C21.2 24.59 21.76 24.09 22.46 23.74C21.84 23.4 21.35 22.93 21 22.33C20.65 21.73 20.48 21.04 20.48 20.25C20.48 18.87 20.87 17.79 21.66 17.03C22.45 16.26 23.49 15.88 24.77 15.88C26.06 15.88 27.1 16.26 27.9 17.03C28.69 17.79 29.08 18.87 29.08 20.25ZM26.3 27.24C26.3 26.54 26.16 25.98 25.88 25.57C25.6 25.16 25.23 24.95 24.78 24.95C24.31 24.95 23.94 25.16 23.67 25.57C23.4 25.98 23.26 26.54 23.26 27.24C23.26 27.96 23.4 28.52 23.67 28.92C23.94 29.33 24.31 29.53 24.79 29.53C25.24 29.53 25.61 29.33 25.89 28.92C26.16 28.52 26.3 27.96 26.3 27.24ZM26.01 20.39C26.01 19.75 25.9 19.25 25.69 18.88C25.48 18.5 25.18 18.31 24.78 18.31C24.38 18.31 24.07 18.5 23.86 18.86C23.66 19.23 23.55 19.74 23.55 20.39C23.55 21.05 23.66 21.57 23.87 21.95C24.08 22.33 24.38 22.51 24.79 22.51C25.19 22.51 25.49 22.33 25.7 21.95C25.91 21.58 26.01 21.06 26.01 20.39Z" />
	<path id="19 " fill="#000000" aria-label="19"  d="M15.47 31.37L15.26 20.14L15.19 20.14L13.91 21.4Q13.76 21.54 13.61 21.63Q13.46 21.7 13.36 21.7Q13.31 21.7 13.24 21.68Q13.18 21.67 13.12 21.61Q13.07 21.54 13.04 21.43Q13.01 21.32 13.01 21.13L13.01 19.53Q13.01 19.32 13.03 19.16Q13.05 19 13.09 18.88Q13.15 18.75 13.22 18.65Q13.31 18.54 13.43 18.42L15.17 16.59L15.18 16.58L15.21 16.55Q15.36 16.41 15.68 16.37Q16.02 16.32 16.63 16.32Q17.12 16.32 17.45 16.36Q17.8 16.39 18 16.47Q18.21 16.55 18.3 16.7Q18.39 16.85 18.38 17.09L17.97 31.37Q17.96 31.58 17.89 31.71Q17.82 31.83 17.66 31.9Q17.5 31.96 17.25 31.98Q17 32 16.63 32Q16.26 32 16.03 31.98Q15.81 31.96 15.68 31.9Q15.56 31.83 15.51 31.71Q15.47 31.58 15.47 31.37ZM21.3 31.13Q21.3 30.85 21.33 30.68Q21.36 30.52 21.41 30.42Q21.48 30.33 21.58 30.3Q21.69 30.27 21.86 30.27L24.54 30.27Q24.99 30.27 25.29 30.19Q25.6 30.11 25.78 29.92Q25.97 29.74 26.05 29.44Q26.14 29.14 26.14 28.73L26.14 26.6Q25.96 26.66 25.77 26.71Q25.59 26.76 25.37 26.8Q25.14 26.84 24.86 26.87Q24.58 26.89 24.22 26.89Q23.87 26.89 23.46 26.84Q23.07 26.8 22.66 26.69Q22.26 26.59 21.88 26.42Q21.5 26.24 21.19 25.98Q20.9 25.72 20.71 25.37Q20.52 25.01 20.51 24.55L20.28 18.95Q20.27 18.44 20.46 18.04Q20.64 17.63 20.97 17.33Q21.3 17.03 21.74 16.81Q22.18 16.6 22.67 16.47Q23.17 16.34 23.69 16.28Q24.21 16.22 24.7 16.22Q25.19 16.22 25.71 16.28Q26.24 16.34 26.74 16.47Q27.24 16.6 27.68 16.81Q28.12 17.03 28.45 17.33Q28.78 17.63 28.97 18.04Q29.15 18.44 29.13 18.95L28.66 29.31Q28.64 29.86 28.44 30.35Q28.24 30.83 27.77 31.2Q27.3 31.56 26.51 31.79Q25.72 32 24.53 32L22.13 32Q21.84 32 21.67 31.99Q21.51 31.98 21.42 31.91Q21.34 31.82 21.32 31.65Q21.3 31.47 21.3 31.13ZM24.72 25.26Q25.06 25.26 25.4 25.21Q25.76 25.16 26.08 25.03L25.92 19.11Q25.91 18.75 25.84 18.52Q25.77 18.28 25.62 18.14Q25.48 17.99 25.25 17.94Q25.02 17.88 24.7 17.88Q24.38 17.88 24.16 17.94Q23.94 17.99 23.79 18.14Q23.65 18.28 23.58 18.52Q23.5 18.75 23.49 19.11L23.36 23.89Q23.34 24.28 23.42 24.54Q23.49 24.8 23.66 24.97Q23.83 25.13 24.09 25.19Q24.36 25.26 24.72 25.26Z" />
</svg>