<svg version="1.2" baseProfile="tiny-ps" xmlns="http://www.w3.org/2000/svg" viewBox="0 0 48 50" width="48" height="50">
	<title>2-svg</title>
	<style>
		tspan { white-space:pre }
		.shp0 { fill: #3498db } 
		.shp1 { fill: #f1c40f } 
	</style>
	<g id="surface60764586">
		<path id="Layer" fill-rule="evenodd" class="shp0" d="M12 0C13.09 0 14 0.91 14 2L14 4L32 4L32 2C32 0.91 32.91 0 34 0L36 0C37.09 0 38 0.91 38 2L38 4L44 4C45.16 4 46 4.84 46 6L46 13L0 13L0 6C0 4.84 0.84 4 2 4L8 4L8 2C8 0.91 8.91 0 10 0L12 0ZM10 8L12 8L12 2L10 2L10 8ZM34 8L36 8L36 2L34 2L34 8ZM46 15L46 27C44.6 27 43.4 27.9 43.1 29.2C41.5 28.4 39.8 28 38 28C37.5 28 37 28.03 36.51 28.09L31.71 23.29C31.32 22.9 30.68 22.9 30.29 23.29C29.9 23.68 29.9 24.32 30.29 24.71L34.2 28.62C33.87 28.73 33.54 28.86 33.22 29L11.41 29L15.71 24.71C16.1 24.32 16.1 23.68 15.71 23.29C15.51 23.1 15.25 23 15 23C14.75 23 14.49 23.1 14.29 23.29L7.59 30L14.29 36.71C14.49 36.9 14.74 37 15 37C15.26 37 15.51 36.9 15.71 36.71C16.1 36.32 16.1 35.68 15.71 35.29L11.41 31L30.09 31C27.58 33.2 26 36.43 26 40C26 43.07 27.16 45.87 29.07 48L2 48C0.89 48 0 47.11 0 46L0 15L46 15ZM37.8 34C37.3 34.6 37 35.2 37 36C37 37.7 38.3 39 40 39L44.2 39C44.1 39.3 44 39.6 44 40C44 43.3 41.3 46 38 46C34.7 46 32 43.3 32 40C32 36.8 34.6 34.2 37.8 34Z" />
		<path id="Layer" class="shp1" d="M47 39C46.4 39 46 39.5 46 40C46 44.4 42.4 48 38 48C33.6 48 30 44.4 30 40C30 35.6 33.6 32 38 32C41.2 32 43.1 34 43.9 35L40 35C39.4 35 39 35.4 39 36C39 36.6 39.4 37 40 37L47 37L47 30C47 29.4 46.6 29 46 29C45.4 29 45 29.4 45 30L45 33.2C43.8 31.9 41.5 30 38 30C32.5 30 28 34.5 28 40C28 45.5 32.5 50 38 50C43.5 50 48 45.5 48 40C48 39.4 47.6 39 47 39Z" />
	</g>
</svg>