<svg version="1.2" baseProfile="tiny-ps" xmlns="http://www.w3.org/2000/svg" viewBox="0 0 48 48" width="48" height="48">
	<title>18+-svg</title>
	<style>
		tspan { white-space:pre }
		.shp0 { fill: #ffffff } 
		.shp1 { fill: #e53935 } 
		.shp2 { fill: #212121 } 
		.shp3 { display: none;fill: #212121 } 
	</style>
	<path id="Layer" class="shp0" d="M24 42C14.05 42 6 33.95 6 24C6 14.05 14.05 6 24 6C33.95 6 42 14.05 42 24C42 33.95 33.95 42 24 42Z" />
	<path id="Layer" fill-rule="evenodd" class="shp1" d="M24 4C35.05 4 44 12.95 44 24C44 35.05 35.05 44 24 44C12.95 44 4 35.05 4 24C4 12.95 12.95 4 24 4ZM8 24C8 32.82 15.18 40 24 40C32.82 40 40 32.82 40 24C40 15.18 32.82 8 24 8C15.18 8 8 15.18 8 24Z" />
	<path id="Layer" class="shp2" d="M33 21L36 21L36 28L33 28L33 21Z" />
	<path id="Layer" class="shp2" d="M38 23L38 26L31 26L31 23L38 23Z" />
	<path id="Layer" class="shp3" d="M17.69 31.74L14.64 31.74L14.64 19.29L11.74 19.36L11.74 17.15L17.69 16.09L17.69 31.74Z" />
	<path id="Layer" fill-rule="evenodd" class="shp3" d="M29.08 20.25C29.08 21.04 28.91 21.73 28.55 22.33C28.2 22.93 27.71 23.4 27.09 23.74C27.8 24.1 28.35 24.6 28.75 25.24C29.15 25.89 29.35 26.63 29.35 27.47C29.35 28.92 28.93 30.03 28.09 30.81C27.26 31.58 26.15 31.97 24.78 31.97C23.42 31.97 22.31 31.58 21.47 30.8C20.62 30.03 20.2 28.91 20.2 27.47C20.2 26.63 20.4 25.89 20.8 25.24C21.2 24.59 21.76 24.09 22.46 23.74C21.84 23.4 21.35 22.93 21 22.33C20.65 21.73 20.48 21.04 20.48 20.25C20.48 18.87 20.87 17.79 21.66 17.03C22.45 16.26 23.49 15.88 24.77 15.88C26.06 15.88 27.1 16.26 27.9 17.03C28.69 17.79 29.08 18.87 29.08 20.25ZM26.3 27.24C26.3 26.54 26.16 25.98 25.88 25.57C25.6 25.16 25.23 24.95 24.78 24.95C24.31 24.95 23.94 25.16 23.67 25.57C23.4 25.98 23.26 26.54 23.26 27.24C23.26 27.96 23.4 28.52 23.67 28.92C23.94 29.33 24.31 29.53 24.79 29.53C25.24 29.53 25.61 29.33 25.89 28.92C26.16 28.52 26.3 27.96 26.3 27.24ZM26.01 20.39C26.01 19.75 25.9 19.25 25.69 18.88C25.48 18.5 25.18 18.31 24.78 18.31C24.38 18.31 24.07 18.5 23.86 18.86C23.66 19.23 23.55 19.74 23.55 20.39C23.55 21.05 23.66 21.57 23.87 21.95C24.08 22.33 24.38 22.51 24.79 22.51C25.19 22.51 25.49 22.33 25.7 21.95C25.91 21.58 26.01 21.06 26.01 20.39Z" />
	<path id="21 " fill="#000000" aria-label="21"  d="M14.52 31.35L14.52 31.05Q14.52 30.71 14.59 30.51Q14.67 30.29 14.84 30.11L19.33 24.06Q19.54 23.8 19.7 23.58Q19.86 23.37 19.94 23.13Q20.04 22.9 20.08 22.63Q20.12 22.35 20.11 21.97L20 18.44Q19.99 18.02 19.9 17.76Q19.82 17.5 19.65 17.37Q19.49 17.23 19.25 17.2Q19.02 17.15 18.7 17.15Q18.39 17.15 18.15 17.2Q17.91 17.23 17.75 17.37Q17.59 17.5 17.5 17.76Q17.42 18.02 17.41 18.44L17.3 22.58Q17.29 22.87 17.21 23.05Q17.13 23.23 16.96 23.33Q16.78 23.42 16.49 23.45Q16.19 23.47 15.76 23.47Q15.33 23.47 15.05 23.45Q14.77 23.42 14.6 23.33Q14.44 23.23 14.36 23.05Q14.29 22.87 14.28 22.58L13.99 18.51Q13.97 17.78 14.27 17.21Q14.58 16.62 15.19 16.22Q15.79 15.82 16.67 15.6Q17.56 15.39 18.7 15.39Q19.82 15.39 20.69 15.6Q21.55 15.82 22.15 16.22Q22.75 16.62 23.05 17.21Q23.36 17.78 23.34 18.51L23.13 22.67Q23.12 23.01 23.05 23.3Q22.99 23.58 22.85 23.86Q22.73 24.13 22.52 24.4Q22.32 24.68 22.03 24.97L17.57 30.11L17.57 30.18L22.27 30.18Q22.52 30.18 22.66 30.24Q22.8 30.3 22.87 30.42Q22.94 30.53 22.95 30.68Q22.97 30.83 22.97 31.01Q22.97 31.29 22.95 31.47Q22.94 31.66 22.87 31.78Q22.8 31.89 22.66 31.95Q22.52 32 22.27 32L15.23 32Q15.01 32 14.88 31.98Q14.74 31.95 14.66 31.88Q14.58 31.8 14.55 31.68Q14.52 31.55 14.52 31.35ZM27.02 31.34L26.81 19.52L26.73 19.52L25.38 20.84Q25.23 20.99 25.07 21.08Q24.91 21.16 24.81 21.16Q24.75 21.16 24.68 21.14Q24.61 21.12 24.55 21.06Q24.5 20.99 24.46 20.88Q24.44 20.76 24.44 20.55L24.44 18.88Q24.44 18.65 24.46 18.48Q24.47 18.32 24.52 18.19Q24.58 18.05 24.66 17.95Q24.75 17.83 24.88 17.7L26.71 15.78L26.72 15.77L26.75 15.74Q26.91 15.59 27.25 15.54Q27.6 15.5 28.24 15.5Q28.76 15.5 29.11 15.54Q29.47 15.56 29.69 15.65Q29.91 15.74 30 15.9Q30.1 16.05 30.09 16.31L29.66 31.34Q29.65 31.56 29.57 31.7Q29.5 31.82 29.33 31.89Q29.16 31.96 28.9 31.98Q28.63 32 28.24 32Q27.85 32 27.62 31.98Q27.38 31.96 27.25 31.89Q27.12 31.82 27.07 31.7Q27.02 31.56 27.02 31.34Z" />
</svg>