<svg version="1.2" baseProfile="tiny-ps" xmlns="http://www.w3.org/2000/svg" viewBox="0 0 48 48" width="48" height="48">
	<title>18+-svg</title>
	<style>
		tspan { white-space:pre }
		.shp0 { fill: #ffffff } 
		.shp1 { fill: #e53935 } 
		.shp2 { fill: #212121 } 
		.shp3 { display: none;fill: #212121 } 
	</style>
	<path id="Layer" class="shp0" d="M24 42C14.05 42 6 33.95 6 24C6 14.05 14.05 6 24 6C33.95 6 42 14.05 42 24C42 33.95 33.95 42 24 42Z" />
	<path id="Layer" fill-rule="evenodd" class="shp1" d="M24 4C35.05 4 44 12.95 44 24C44 35.05 35.05 44 24 44C12.95 44 4 35.05 4 24C4 12.95 12.95 4 24 4ZM8 24C8 32.82 15.18 40 24 40C32.82 40 40 32.82 40 24C40 15.18 32.82 8 24 8C15.18 8 8 15.18 8 24Z" />
	<path id="Layer" class="shp2" d="M33 21L36 21L36 28L33 28L33 21Z" />
	<path id="Layer" class="shp2" d="M38 23L38 26L31 26L31 23L38 23Z" />
	<path id="Layer" class="shp3" d="M17.69 31.74L14.64 31.74L14.64 19.29L11.74 19.36L11.74 17.15L17.69 16.09L17.69 31.74Z" />
	<path id="Layer" fill-rule="evenodd" class="shp3" d="M29.08 20.25C29.08 21.04 28.91 21.73 28.55 22.33C28.2 22.93 27.71 23.4 27.09 23.74C27.8 24.1 28.35 24.6 28.75 25.24C29.15 25.89 29.35 26.63 29.35 27.47C29.35 28.92 28.93 30.03 28.09 30.81C27.26 31.58 26.15 31.97 24.78 31.97C23.42 31.97 22.31 31.58 21.47 30.8C20.62 30.03 20.2 28.91 20.2 27.47C20.2 26.63 20.4 25.89 20.8 25.24C21.2 24.59 21.76 24.09 22.46 23.74C21.84 23.4 21.35 22.93 21 22.33C20.65 21.73 20.48 21.04 20.48 20.25C20.48 18.87 20.87 17.79 21.66 17.03C22.45 16.26 23.49 15.88 24.77 15.88C26.06 15.88 27.1 16.26 27.9 17.03C28.69 17.79 29.08 18.87 29.08 20.25ZM26.3 27.24C26.3 26.54 26.16 25.98 25.88 25.57C25.6 25.16 25.23 24.95 24.78 24.95C24.31 24.95 23.94 25.16 23.67 25.57C23.4 25.98 23.26 26.54 23.26 27.24C23.26 27.96 23.4 28.52 23.67 28.92C23.94 29.33 24.31 29.53 24.79 29.53C25.24 29.53 25.61 29.33 25.89 28.92C26.16 28.52 26.3 27.96 26.3 27.24ZM26.01 20.39C26.01 19.75 25.9 19.25 25.69 18.88C25.48 18.5 25.18 18.31 24.78 18.31C24.38 18.31 24.07 18.5 23.86 18.86C23.66 19.23 23.55 19.74 23.55 20.39C23.55 21.05 23.66 21.57 23.87 21.95C24.08 22.33 24.38 22.51 24.79 22.51C25.19 22.51 25.49 22.33 25.7 21.95C25.91 21.58 26.01 21.06 26.01 20.39Z" />
	<path id="22 " fill="#000000" aria-label="22"  d="M13.29 30.44L13.29 30.19Q13.29 29.9 13.35 29.73Q13.42 29.55 13.56 29.39L17.38 24.25Q17.56 24.03 17.69 23.84Q17.83 23.66 17.9 23.46Q17.98 23.26 18.02 23.03Q18.05 22.8 18.04 22.48L17.95 19.47Q17.94 19.11 17.87 18.9Q17.79 18.67 17.65 18.57Q17.52 18.45 17.31 18.42Q17.11 18.37 16.85 18.37Q16.58 18.37 16.37 18.42Q16.18 18.45 16.03 18.57Q15.9 18.67 15.83 18.9Q15.76 19.11 15.75 19.47L15.65 22.99Q15.64 23.24 15.58 23.4Q15.51 23.55 15.36 23.63Q15.21 23.7 14.96 23.73Q14.71 23.75 14.35 23.75Q13.98 23.75 13.74 23.73Q13.5 23.7 13.36 23.63Q13.22 23.55 13.15 23.4Q13.1 23.24 13.09 22.99L12.84 19.54Q12.82 18.91 13.08 18.42Q13.34 17.93 13.86 17.59Q14.37 17.25 15.12 17.06Q15.88 16.88 16.85 16.88Q17.79 16.88 18.53 17.06Q19.27 17.25 19.78 17.59Q20.28 17.93 20.54 18.42Q20.81 18.91 20.79 19.54L20.61 23.07Q20.6 23.35 20.54 23.6Q20.49 23.84 20.38 24.08Q20.27 24.31 20.09 24.54Q19.92 24.77 19.68 25.02L15.88 29.39L15.88 29.46L19.88 29.46Q20.09 29.46 20.21 29.51Q20.33 29.56 20.39 29.66Q20.45 29.75 20.46 29.88Q20.48 30 20.48 30.16Q20.48 30.39 20.46 30.55Q20.45 30.71 20.39 30.81Q20.33 30.91 20.21 30.96Q20.09 31 19.88 31L13.89 31Q13.71 31 13.59 30.98Q13.48 30.96 13.41 30.9Q13.34 30.83 13.32 30.73Q13.29 30.62 13.29 30.44ZM23.01 30.44L23.01 30.19Q23.01 29.9 23.06 29.73Q23.13 29.55 23.27 29.39L27.09 24.25Q27.27 24.03 27.41 23.84Q27.54 23.66 27.61 23.46Q27.7 23.26 27.73 23.03Q27.76 22.8 27.75 22.48L27.66 19.47Q27.66 19.11 27.58 18.9Q27.51 18.67 27.36 18.57Q27.23 18.45 27.02 18.42Q26.83 18.37 26.56 18.37Q26.29 18.37 26.09 18.42Q25.89 18.45 25.75 18.57Q25.61 18.67 25.54 18.9Q25.47 19.11 25.46 19.47L25.36 22.99Q25.36 23.24 25.29 23.4Q25.22 23.55 25.07 23.63Q24.92 23.7 24.68 23.73Q24.43 23.75 24.06 23.75Q23.7 23.75 23.46 23.73Q23.21 23.7 23.07 23.63Q22.93 23.55 22.87 23.4Q22.81 23.24 22.8 22.99L22.55 19.54Q22.53 18.91 22.79 18.42Q23.06 17.93 23.57 17.59Q24.09 17.25 24.83 17.06Q25.59 16.88 26.56 16.88Q27.51 16.88 28.24 17.06Q28.98 17.25 29.49 17.59Q30 17.93 30.25 18.42Q30.52 18.91 30.5 19.54L30.32 23.07Q30.31 23.35 30.25 23.6Q30.2 23.84 30.09 24.08Q29.98 24.31 29.81 24.54Q29.63 24.77 29.39 25.02L25.6 29.39L25.6 29.46L29.59 29.46Q29.81 29.46 29.92 29.51Q30.05 29.56 30.1 29.66Q30.16 29.75 30.17 29.88Q30.19 30 30.19 30.16Q30.19 30.39 30.17 30.55Q30.16 30.71 30.1 30.81Q30.05 30.91 29.92 30.96Q29.81 31 29.59 31L23.6 31Q23.42 31 23.31 30.98Q23.19 30.96 23.12 30.9Q23.06 30.83 23.03 30.73Q23.01 30.62 23.01 30.44Z" />
</svg>