<svg version="1.2" baseProfile="tiny-ps" xmlns="http://www.w3.org/2000/svg" viewBox="0 0 48 50" width="48" height="50">
	<title>3-svg</title>
	<style>
		tspan { white-space:pre }
		.shp0 { fill: #3498db } 
		.shp1 { fill: #f1c40f } 
	</style>
	<g id="surface51302836">
		<path id="Layer" fill-rule="evenodd" class="shp0" d="M41.81 4C44.13 4 46 5.79 46 8L46 25.2C44.03 24.55 41.92 24.19 39.73 24.19C29.32 24.19 20.89 32.2 20.89 42.08C20.89 44.16 21.26 46.15 21.94 48L4.14 48C1.83 48 -0.04 46.21 -0.04 44L-0.04 8C-0.04 5.79 1.83 4 4.14 4L41.81 4ZM6.24 17C6.24 20.86 9.52 24 13.56 24C17.6 24 20.89 20.86 20.89 17C20.89 13.14 17.6 10 13.56 10C9.52 10 6.24 13.14 6.24 17ZM34.06 12.59L8.94 36.59C8.12 37.37 8.12 38.63 8.94 39.41C9.35 39.8 9.88 40 10.43 40C10.96 40 11.49 39.8 11.91 39.41L37.02 15.41C37.83 14.63 37.83 13.37 37.02 12.59C36.61 12.2 36.07 12 35.54 12C35.01 12 34.47 12.2 34.06 12.59ZM16.7 17C16.7 18.66 15.29 20 13.56 20C11.83 20 10.43 18.66 10.43 17C10.43 15.34 11.83 14 13.56 14C15.29 14 16.7 15.34 16.7 17Z" />
		<path id="Layer" fill-rule="evenodd" class="shp1" d="M48 38C48 44.62 42.63 50 36 50C29.38 50 24 44.62 24 38C24 31.37 29.38 26 36 26C42.63 26 48 31.37 48 38ZM41.08 37.98C41.08 33.96 39.11 31.63 36 31.63C32.89 31.63 30.93 33.97 30.93 37.97C30.93 41.97 32.86 44.36 36 44.36C39.14 44.36 41.08 41.96 41.08 37.98ZM37.96 37.97C37.96 40.64 37.18 42 36 42C34.83 42 34.05 40.64 34.05 37.97C34.05 35.32 34.83 34 36 34C37.18 34 37.96 35.32 37.96 37.97Z" />
	</g>
</svg>