<svg version="1.2" baseProfile="tiny-ps" xmlns="http://www.w3.org/2000/svg" viewBox="0 0 1209 432" width="1209" height="432">
	<title>3-M-svg</title>
	<style>
		tspan { white-space:pre }
		.shp0 { fill-opacity: 0.38;fill: none;stroke: #000000;stroke-width: 2 } 
		.shp1 { fill-opacity: 0.439;fill: #000000 } 
		.shp2 { fill: #000000 } 
		.shp3 { fill: #014573 } 
	</style>
	<path id="Layer" class="shp0" d="M1123.88 424.85L144.32 430.69C102.33 430.94 72.41 430.2 69.5 428.85L1.64 397.29C-1.27 395.94 24.78 394.87 66.76 394.62L1046.33 388.78C1088.31 388.54 1118.24 389.27 1121.14 390.62L1189 422.18C1191.91 423.53 1165.86 424.6 1123.88 424.85Z" />
	<path id="Layer" fill-rule="evenodd" class="shp1" d="M11.11 398.14L6.9 396.26L62.6 395.85L87.43 396.45L108.77 395.5L220.18 394.67L147.34 397.92L256.91 400.59L351.08 396.39L266.34 394.32L377.75 393.49L402.57 394.09L423.92 393.14L535.32 392.31L462.48 395.56L572.05 398.23L666.22 394.03L581.49 391.96L692.89 391.12L717.72 391.73L739.06 390.78L850.46 389.94L777.63 393.19L887.19 395.87L981.37 391.67L896.63 389.6L1008.03 388.76L1032.86 389.37L1054.2 388.42L1109.9 388L1114.11 389.88L1092.77 390.83L1117.6 391.44L1126.01 395.2L1041.28 393.13L947.1 397.33L1056.66 400.01L1129.5 396.76L1137.91 400.52L1116.57 401.47L1141.4 402.08L1149.82 405.84L1065.08 403.77L970.9 407.97L1080.47 410.65L1153.3 407.4L1161.72 411.16L1140.38 412.11L1165.21 412.72L1173.62 416.48L1088.88 414.41L994.71 418.61L1104.27 421.29L1177.11 418.04L1185.52 421.8L1164.18 422.75L1052.78 423.59L943.21 420.91L849.04 425.11L737.64 425.95L628.07 423.27L533.9 427.47L422.49 428.31L312.93 425.63L218.75 429.83L107.35 430.67L82.52 430.06L74.11 426.3L158.84 428.37L253.02 424.17L143.45 421.49L70.62 424.74L62.2 420.98L83.55 420.03L58.72 419.42L50.3 415.66L135.04 417.73L229.21 413.53L119.65 410.85L46.82 414.1L38.4 410.34L59.74 409.39L34.91 408.78L26.5 405.02L111.24 407.09L205.41 402.89L95.85 400.21L23.01 403.46L14.6 399.7L35.94 398.75L11.11 398.14ZM410.99 397.85L316.81 402.06L426.38 404.73L520.55 400.53L410.99 397.85ZM340.62 412.69L450.18 415.37L544.36 411.17L434.79 408.49L340.62 412.69ZM486.29 406.19L595.85 408.87L690.03 404.67L580.46 401.99L486.29 406.19ZM655.76 410.33L765.33 413.01L859.5 408.81L749.94 406.13L655.76 410.33ZM726.13 395.49L631.96 399.69L741.52 402.37L835.7 398.17L726.13 395.49ZM1005.17 402.31L895.61 399.63L801.43 403.83L911 406.51L1005.17 402.31ZM1028.97 412.95L919.41 410.27L825.23 414.47L934.8 417.15L1028.97 412.95ZM789.13 423.65L883.31 419.45L773.74 416.77L679.57 420.97L789.13 423.65ZM713.83 415.31L604.27 412.63L510.09 416.83L619.66 419.51L713.83 415.31ZM473.99 426.01L568.16 421.81L458.6 419.13L364.42 423.33L473.99 426.01ZM194.95 419.19L304.51 421.87L398.69 417.67L289.12 414.99L194.95 419.19ZM171.14 408.56L280.71 411.23L374.88 407.03L265.32 404.35L171.14 408.56Z" />
	<path id="Layer" class="shp2" d="M163.66 424L95.03 416.64L144.15 93.66L71 116.05L81.38 47.76L219.42 0L228 0.92L163.66 424Z" />
	<path id="Layer copy" class="shp3" d="M257.2 222.12L262.38 227.15L650.49 227.08L645.3 222.05L257.2 222.12Z" />
	<path id="Layer copy 10" class="shp3" d="M266.23 233.02L271.37 238.1L659.89 236.46L654.75 231.39L266.23 233.02Z" />
	<path id="Layer copy 4" class="shp3" d="M255.61 217.07L260.8 222.1L648.9 222.02L643.72 217L255.61 217.07Z" />
	<path id="Layer copy 2" class="shp3" d="M262.79 228.99L267.97 234.02L656.08 233.94L650.89 228.91L262.79 228.99Z" />
	<path id="Layer copy 6" class="shp3" d="M267.2 229.66L272.6 234.62L658.91 228.05L653.51 223.09L267.2 229.66Z" />
	<path id="Layer copy 5" class="shp3" d="M265.04 225.81L270.11 230.87L659.05 234.3L653.99 229.23L265.04 225.81Z" />
	<path id="Layer copy 7" class="shp3" d="M273.92 242.4L278.53 247.32L649.59 244.13L644.98 239.21L273.92 242.4Z" />
	<path id="Layer copy 3" class="shp3" d="M265.71 237.63L270.99 242.62L658.32 239.62L653.04 234.62L265.71 237.63Z" />
	<path id="Layer" fill-rule="evenodd" class="shp2" d="M942.7 193.02C948.54 162.46 975.22 22.75 1105.43 7.05C1235.65 -8.65 1208.13 135.42 1203.13 161.62L1189.79 231.47C1168.95 340.61 1115.27 406.8 1027.06 417.43C938.85 428.07 909.35 367.65 929.36 262.87L942.7 193.02ZM1002.47 266.85C997.47 293.04 984.13 362.9 1038.73 356.31C1093.34 349.73 1106.68 279.88 1111.68 253.68L1129.19 162C1138.36 113.98 1139.13 66.97 1092.93 72.54C1046.72 78.11 1028.31 131.51 1019.98 175.17L1002.47 266.85Z" />
	<path id="Layer" class="shp2" d="M764.76 181.57L799.78 179.78C821.66 178.66 861.58 172.3 867.79 119.93C873.49 71.92 830.23 69.81 817.1 70.48C782.08 72.26 757.78 106.59 754.73 132.22L678.79 136.09C688.11 57.53 756.41 8.51 820.49 5.23C943.06 -1.06 946.35 81.19 942.73 111.74C936 168.46 880.36 197.34 871.09 202.14C891.94 209.77 928.74 229.57 920.97 295.03C909.31 393.33 819.44 417.33 775.67 419.56C670.61 424.93 649.55 345.77 659.11 301.89L737.9 297.87C731.97 311.19 737.74 356.43 783.44 354.1C840.35 351.19 841.67 303.41 842.7 294.7C849.95 233.59 796.94 240.33 788.19 240.78L753.17 242.57L760.38 181.79L764.76 181.57Z" />
</svg>