<svg version="1.2" baseProfile="tiny-ps" xmlns="http://www.w3.org/2000/svg" viewBox="0 0 18 14" width="18" height="14">
	<title>3-M-svg</title>
	<style>
		tspan { white-space:pre }
		.shp0 { fill: none;stroke: #000000;stroke-width: 2 } 
		.shp1 { fill: #000000 } 
	</style>
	<path id="Layer" class="shp0" d="M16 13L2 13C1.4 13 1 12.7 1 12.25L1 1.75C1 1.3 1.4 1 2 1L16 1C16.6 1 17 1.3 17 1.75L17 12.25C17 12.7 16.6 13 16 13Z" />
	<path id="Layer" fill-rule="evenodd" class="shp1" d="M15.75 7.86C15.74 8.61 15.71 12.03 12.31 12C8.9 11.97 8.93 8.45 8.93 7.81L8.94 6.1C8.96 3.43 10.08 1.95 12.38 1.97C14.69 1.98 15.78 3.59 15.76 6.16L15.75 7.86ZM13.78 5.82C13.79 5.18 13.8 3.47 12.37 3.46C10.94 3.45 10.93 5.16 10.93 5.8L10.91 8.04C10.9 9.21 11.11 10.39 12.32 10.4C13.53 10.41 13.76 9.13 13.77 8.06L13.78 5.82Z" />
	<path id="Layer" class="shp1" d="M4.1 6.21L4.9 6.21C5.4 6.21 6.3 6.11 6.3 4.84C6.3 3.69 5.3 3.58 5 3.58C4.2 3.58 3.73 4.38 3.73 5L2 5C2 3.11 3.44 2 4.9 2C7.7 2 8 4 8 4.74C8 6.11 6.8 6.74 6.6 6.84C7.1 7.05 8 7.58 8 9.16C8 11.53 6 12 5 12C2.6 12 1.9 10.05 2 9L3.8 9C3.7 9.32 3.96 10.42 5 10.42C6.3 10.42 6.2 9.26 6.2 9.05C6.2 7.58 5 7.68 4.8 7.68L4 7.68L4 6.21L4.1 6.21Z" />
</svg>