<?xml version="1.0" encoding="UTF-8"?>
<svg xmlns="http://www.w3.org/2000/svg" xmlns:xlink="http://www.w3.org/1999/xlink" viewBox="0 0 50 50" width="50px" height="50px">
<g id="surface15297282">
<path style=" stroke:none;fill-rule:nonzero;fill:rgb(20.392157%,59.607846%,85.882354%);fill-opacity:1;" d="M 14 0 C 15.09375 0 16 0.90625 16 2 L 16 4 L 34 4 L 34 2 C 34 0.90625 34.90625 0 36 0 L 38 0 C 39.09375 0 40 0.90625 40 2 L 40 4 L 46 4 C 47.160156 4 48 4.839844 48 6 L 48 13 L 2 13 L 2 6 C 2 4.839844 2.839844 4 4 4 L 10 4 L 10 2 C 10 0.90625 10.90625 0 12 0 Z M 12 8 L 14 8 L 14 2 L 12 2 Z M 36 8 L 38 8 L 38 2 L 36 2 Z M 48 15 L 48 31.074219 C 45.871094 29.164062 43.066406 28 40 28 C 36.007812 28 32.453125 29.976562 30.269531 33 L 19 33 L 25 39 L 29.1875 34.8125 C 28.425781 36.386719 28 38.144531 28 40 C 28 43.066406 29.164062 45.871094 31.074219 48 L 4 48 C 2.894531 48 2 47.105469 2 46 L 2 15 Z M 19 27 L 31 27 L 25 21 Z M 19 27 "/>
<path style=" stroke:none;fill-rule:nonzero;fill:rgb(94.509804%,76.862746%,5.882353%);fill-opacity:1;" d="M 40 50 C 34.5 50 30 45.5 30 40 C 30 34.5 34.5 30 40 30 C 45.5 30 50 34.5 50 40 C 50 45.5 45.5 50 40 50 Z M 40 32 C 35.601562 32 32 35.601562 32 40 C 32 44.398438 35.601562 48 40 48 C 44.398438 48 48 44.398438 48 40 C 48 35.601562 44.398438 32 40 32 Z M 41 43 L 39 43 L 39 45 L 41 45 Z M 42 40 C 42.5 39.398438 43 38.800781 43 38 C 43 35.800781 41.199219 35 40 35 C 37.800781 35 37 36.800781 37 38 L 39 38 C 39 37.5 39.199219 37 40 37 C 40.5 37 41 37.199219 41 38 C 41 38.101562 40.699219 38.5 40.5 38.699219 C 39.898438 39.398438 39 40.5 39 42 L 41 42 C 41 41.199219 41.5 40.601562 42 40 Z M 42 40 "/>
</g>
</svg>
